{"glyphs":{":":{"x_min":0,"x_max":218,"ha":218,"o":"m 56 440 q 56 462 72 478 q 87 493 110 493 q 131 493 147 478 q 162 462 162 440 q 162 418 147 402 q 131 386 110 386 q 88 386 72 402 q 56 418 56 440 z m 56 45 q 56 68 72 83 q 87 99 109 99 q 131 99 147 83 q 162 68 162 45 q 162 23 146 7 q 130 -9 109 -9 q 88 -9 72 7 q 56 22 56 43 z"},"$":{"x_min":0,"x_max":435,"ha":435,"o":"m 205 676 q 152 671 123 639 q 94 607 94 555 q 94 512 121 481 q 147 450 205 426 z m 232 27 q 292 29 330 64 q 367 99 367 152 q 367 206 335 243 q 302 280 232 307 z m 205 -79 l 205 4 q 121 10 71 52 q 21 95 21 159 q 21 195 38 218 q 54 240 80 240 q 102 240 116 224 q 131 207 131 182 q 131 157 105 132 q 80 107 80 95 q 80 71 115 51 q 150 31 205 27 l 205 317 q 109 358 70 403 q 30 449 30 514 q 30 589 79 640 q 128 691 205 696 l 205 763 l 232 763 l 232 696 q 309 689 355 647 q 401 605 401 543 q 401 507 385 485 q 368 463 342 463 q 320 463 305 479 q 290 495 290 519 q 290 546 316 571 q 342 596 342 607 q 342 631 310 650 q 279 669 232 673 l 232 416 q 328 378 375 325 q 422 271 422 200 q 422 116 372 64 q 322 12 232 3 l 232 -79 z"},"?":{"x_min":0,"x_max":407,"ha":407,"o":"m 141 206 l 141 214 q 141 247 148 271 q 156 296 172 318 q 178 326 188 340 q 226 390 235 411 q 244 431 247 455 q 251 479 251 517 l 251 553 q 251 627 233 660 q 215 692 175 692 q 147 692 128 677 q 109 663 109 642 q 109 627 130 600 q 151 572 151 552 q 151 535 136 521 q 121 508 101 508 q 74 508 57 530 q 40 551 40 586 q 40 639 83 677 q 126 715 188 715 q 260 715 306 667 q 352 619 352 543 q 352 504 339 470 q 325 436 297 402 q 279 381 245 350 q 210 318 197 304 q 181 286 173 263 q 166 240 165 206 z m 102 42 q 102 64 118 80 q 133 95 156 95 q 178 95 193 80 q 209 64 209 42 q 209 20 193 4 q 178 -11 156 -11 q 134 -11 118 5 q 102 21 102 42 z"},"<":{"x_min":0,"x_max":833,"ha":833,"o":"m 704 559 l 704 497 l 216 298 l 704 100 l 704 37 l 129 273 l 129 323 z"},"'":{"x_min":0,"x_max":170,"ha":170,"o":"m 93 422 l 77 422 l 45 645 q 44 649 44 653 q 44 657 44 664 q 44 688 54 701 q 65 714 85 714 q 105 714 116 701 q 127 688 127 665 q 127 661 125 648 q 125 646 125 645 z"},"=":{"x_min":0,"x_max":833,"ha":833,"o":"m 124 233 l 709 233 l 709 176 l 124 176 z m 124 420 l 709 420 l 709 363 l 124 363 z"},"a":{"x_min":0,"x_max":454,"ha":454,"o":"m 273 304 q 253 287 217 271 q 182 254 173 249 q 149 234 139 210 q 130 186 130 125 q 130 79 145 54 q 160 30 188 30 q 224 30 249 70 q 273 111 273 175 z m 276 79 q 257 38 226 15 q 194 -8 155 -8 q 102 -8 66 31 q 30 70 30 129 q 30 186 59 220 q 89 254 166 280 l 172 282 q 242 305 273 329 l 273 395 q 273 442 253 464 q 233 486 191 486 q 163 486 144 475 q 125 463 125 447 q 125 439 150 427 q 175 415 175 386 q 175 364 158 349 q 142 333 119 333 q 92 333 76 351 q 59 370 59 399 q 59 446 100 476 q 140 505 207 505 q 289 505 325 471 q 361 437 361 356 l 361 87 q 361 55 367 41 q 373 27 386 27 q 403 27 411 49 q 418 71 418 125 l 441 125 l 441 104 q 441 49 420 21 q 400 -8 360 -8 q 325 -8 303 14 q 282 36 276 79 z"},"L":{"x_min":0,"x_max":532,"ha":532,"o":"m 287 701 l 287 679 l 256 679 q 221 679 210 668 q 199 656 199 621 l 199 103 q 199 48 211 36 q 223 24 272 24 q 358 24 412 88 q 465 151 483 276 l 505 276 l 498 0 l 18 0 l 18 23 l 48 23 q 83 23 94 35 q 106 46 106 81 l 106 621 q 106 656 94 667 q 83 679 48 679 l 18 679 l 18 701 z"},"3":{"x_min":0,"x_max":435,"ha":435,"o":"m 239 368 q 311 353 352 302 q 394 252 394 180 q 394 99 339 45 q 284 -9 200 -9 q 124 -9 73 35 q 23 80 23 145 q 23 188 46 216 q 70 244 105 244 q 130 244 149 226 q 167 208 167 182 q 167 157 151 141 q 134 125 108 125 q 102 125 92 126 q 82 128 78 128 q 71 128 66 122 q 61 117 61 110 q 61 74 95 45 q 130 16 173 16 q 230 16 258 56 q 285 97 285 181 q 285 281 266 315 q 248 349 200 349 q 191 349 177 347 q 163 345 157 345 q 146 345 140 350 q 134 354 134 364 q 134 373 141 378 q 147 384 159 384 q 165 384 178 382 q 192 381 200 381 q 239 381 256 414 q 272 448 272 532 q 272 610 249 646 q 227 681 177 681 q 131 681 97 654 q 64 626 64 590 q 64 580 69 573 q 74 567 81 567 q 83 567 96 572 q 110 577 122 577 q 146 577 159 562 q 172 547 172 521 q 172 496 154 479 q 136 462 109 462 q 75 462 52 489 q 30 515 30 556 q 30 618 77 662 q 124 706 190 706 q 271 706 323 656 q 375 606 375 531 q 375 475 339 432 q 303 389 239 368 z"},";":{"x_min":0,"x_max":218,"ha":218,"o":"m 55 440 q 55 462 71 478 q 86 493 109 493 q 130 493 146 478 q 162 462 162 440 q 162 418 146 402 q 130 386 109 386 q 87 386 71 402 q 55 418 55 440 z m 56 -144 q 91 -116 111 -86 q 132 -56 132 -36 q 132 -25 126 -19 q 121 -13 107 -10 q 76 -3 65 9 q 54 20 54 41 q 54 64 69 80 q 84 95 106 95 q 136 95 155 71 q 174 46 174 8 q 174 -32 148 -75 q 122 -119 72 -161 z"},"J":{"x_min":0,"x_max":462,"ha":462,"o":"m 263 621 q 263 656 252 667 q 240 679 205 679 l 175 679 l 175 701 l 444 701 l 444 679 l 413 679 q 378 679 367 668 q 356 656 356 621 l 356 220 q 356 158 350 126 q 344 94 330 69 q 308 29 267 7 q 225 -16 175 -16 q 104 -16 59 27 q 13 70 13 136 q 13 181 36 209 q 59 238 94 238 q 121 238 137 221 q 154 205 154 179 q 154 155 141 141 q 127 126 103 124 q 83 122 74 114 q 66 106 66 90 q 66 54 93 30 q 120 6 162 6 q 217 6 240 42 q 263 78 263 172 z"},"V":{"x_min":0,"x_max":549,"ha":549,"o":"m 251 -12 l 88 582 q 73 636 53 657 q 32 677 -5 679 l -5 701 l 229 701 l 229 679 l 213 679 q 190 679 180 668 q 169 658 169 636 q 169 626 170 619 q 171 611 173 604 l 307 111 l 441 579 q 442 582 443 587 q 451 616 451 629 q 451 654 434 667 q 417 679 383 679 l 379 679 l 379 701 l 575 701 l 575 679 q 540 679 512 651 q 485 623 470 570 l 300 -12 z"},"\"":{"x_min":0,"x_max":331,"ha":331,"o":"m 253 422 l 238 422 l 206 645 q 206 646 206 648 q 204 659 204 664 q 204 688 215 701 q 226 714 246 714 q 266 714 276 701 q 287 688 287 665 q 287 658 287 654 q 287 649 286 645 z m 93 422 l 77 422 l 46 645 q 45 653 44 658 q 44 662 44 665 q 44 688 55 701 q 65 714 85 714 q 105 714 116 701 q 127 688 127 665 q 127 661 125 648 q 125 646 125 645 z"},"7":{"x_min":0,"x_max":435,"ha":435,"o":"m 54 498 l 58 701 l 363 701 l 363 645 q 363 591 354 545 q 345 498 320 434 q 314 419 302 390 q 243 250 243 162 q 243 135 248 99 q 252 62 252 53 q 252 24 239 8 q 226 -9 202 -9 q 170 -9 151 19 q 131 47 131 94 q 131 184 232 337 q 272 398 290 431 q 314 475 326 520 q 338 564 340 615 l 139 615 q 105 615 93 604 q 82 593 80 555 l 77 498 z"},"S":{"x_min":0,"x_max":544,"ha":544,"o":"m 63 0 l 63 278 l 89 278 q 112 146 166 77 q 220 8 300 8 q 356 8 393 45 q 430 83 430 139 q 430 194 398 232 q 365 270 285 304 q 142 366 102 411 q 63 456 63 525 q 63 608 117 662 q 171 715 256 715 q 308 715 355 684 q 403 654 407 654 q 415 654 424 664 q 432 674 439 693 l 463 693 l 466 459 l 442 459 q 421 571 374 631 q 326 691 258 691 q 203 691 168 657 q 133 623 133 570 q 133 483 274 423 q 301 412 316 405 q 406 364 449 312 q 492 259 492 188 q 492 104 435 44 q 378 -15 296 -15 q 235 -15 182 20 q 128 54 126 54 q 117 54 106 40 q 95 25 85 0 z"},"}":{"x_min":0,"x_max":500,"ha":500,"o":"m 87 740 l 92 740 q 197 740 237 704 q 277 668 277 571 l 277 467 q 277 390 305 361 q 333 333 414 325 l 414 296 q 334 290 306 260 q 277 231 277 154 l 277 50 q 277 -47 237 -83 q 197 -119 92 -119 l 87 -119 l 87 -94 q 157 -93 182 -68 q 207 -42 207 34 l 207 104 q 207 214 237 255 q 267 295 347 310 q 267 325 237 365 q 207 406 207 516 l 207 586 q 207 662 182 688 q 156 714 87 715 z"},"Z":{"x_min":0,"x_max":501,"ha":501,"o":"m 20 0 l 20 23 l 369 679 l 303 679 q 188 679 139 634 q 90 588 77 473 l 56 473 l 56 701 l 468 701 l 468 683 l 117 23 l 189 23 q 315 23 373 83 q 431 142 447 288 l 469 288 l 462 0 z"},"x":{"x_min":0,"x_max":428,"ha":428,"o":"m -5 0 l -5 23 l -2 23 q 33 23 54 37 q 76 50 108 103 l 186 229 l 78 419 q 61 449 45 460 q 28 471 3 471 l -5 471 l -5 493 l 203 493 l 203 471 q 182 471 172 466 q 162 461 162 450 q 162 446 164 440 q 166 434 170 427 l 237 306 l 289 393 q 298 408 302 419 q 306 430 306 438 q 306 456 295 463 q 284 471 259 471 l 249 471 l 249 493 l 419 493 l 419 471 l 414 471 q 388 471 368 456 q 349 441 323 400 l 250 282 l 374 69 q 390 41 405 32 q 420 23 448 23 l 452 23 l 452 0 l 231 0 l 231 23 q 259 23 270 29 q 281 35 281 49 q 281 56 278 65 q 275 74 268 86 l 200 206 l 138 100 q 137 99 136 96 q 119 68 119 53 q 119 37 129 30 q 140 24 170 23 l 170 0 z"},")":{"x_min":0,"x_max":333,"ha":333,"o":"m 30 718 q 136 638 193 518 q 251 397 251 254 q 251 111 195 -8 q 138 -126 30 -210 l 30 -179 q 98 -102 130 1 q 161 104 161 254 q 161 404 130 507 q 98 610 30 687 z"},"&":{"x_min":0,"x_max":615,"ha":615,"o":"m 272 443 q 313 462 336 498 q 359 534 359 579 q 359 621 344 644 q 328 667 301 667 q 273 667 255 644 q 237 621 237 585 q 237 557 246 521 q 254 486 272 443 z m 363 68 q 318 128 278 204 q 237 281 202 371 q 164 353 145 321 q 126 289 126 242 q 126 160 174 98 q 222 36 285 36 q 308 36 327 44 q 346 52 363 68 z m 378 49 q 347 18 312 2 q 277 -13 238 -13 q 162 -13 106 46 q 50 106 50 188 q 50 251 86 303 q 123 355 194 394 q 180 436 174 468 q 168 500 168 528 q 168 598 204 642 q 241 686 297 686 q 342 686 371 655 q 401 625 401 578 q 401 534 371 494 q 340 454 281 419 q 322 322 358 250 q 394 179 422 139 q 448 169 463 207 q 478 245 478 282 q 478 316 461 333 q 444 350 407 353 l 407 375 l 590 375 l 590 353 q 562 347 545 328 q 529 310 512 261 q 497 217 479 180 q 460 144 438 115 q 460 83 482 68 q 503 52 525 52 q 541 52 554 61 q 567 70 579 90 l 598 82 q 584 36 556 11 q 528 -13 491 -13 q 459 -13 432 2 q 405 17 378 49 z"},"_":{"x_min":0,"x_max":500,"ha":500,"o":"m 0 -178 l 500 -178 l 500 -236 l 0 -236 z"},"v":{"x_min":0,"x_max":417,"ha":417,"o":"m 196 -12 l 66 395 q 50 446 35 458 q 21 471 -9 471 l -9 493 l 187 493 l 187 471 q 161 471 150 465 q 140 459 140 444 q 140 442 142 433 q 144 424 147 414 l 243 114 l 325 396 q 328 406 330 416 q 331 425 331 433 q 331 453 319 461 q 306 469 272 471 l 272 493 l 425 493 l 425 471 q 398 471 382 455 q 366 438 354 398 l 231 -12 z"},"O":{"x_min":0,"x_max":569,"ha":569,"o":"m 431 351 q 431 528 396 612 q 360 695 285 695 q 210 695 175 612 q 139 528 139 351 q 139 174 175 90 q 210 7 285 7 q 360 7 396 90 q 431 174 431 351 z m 284 718 q 394 718 466 616 q 537 514 537 351 q 537 189 465 86 q 394 -16 284 -16 q 174 -16 103 86 q 32 188 32 351 q 32 514 103 616 q 174 718 284 718 z"},"(":{"x_min":0,"x_max":333,"ha":333,"o":"m 303 718 l 303 687 q 234 611 203 508 q 172 406 172 254 q 172 103 203 0 q 234 -103 303 -179 l 303 -210 q 195 -126 138 -8 q 82 111 82 254 q 82 397 138 515 q 195 634 303 718 z"},"C":{"x_min":0,"x_max":523,"ha":523,"o":"m 485 260 q 475 130 420 57 q 366 -16 279 -16 q 172 -16 103 85 q 34 187 34 350 q 34 510 103 612 q 171 715 271 715 q 321 715 363 684 q 406 653 409 653 q 415 653 421 658 q 426 664 436 680 l 453 709 l 475 709 l 481 430 l 457 430 q 441 549 392 621 q 342 693 277 693 q 205 693 172 613 q 140 533 140 349 q 140 176 177 95 q 213 13 291 13 q 359 13 405 79 q 451 145 460 260 z"},"W":{"x_min":0,"x_max":726,"ha":726,"o":"m 202 -9 l 69 585 q 58 636 39 657 q 20 678 -15 679 l -15 701 l 201 701 l 201 679 q 169 678 157 670 q 145 663 145 644 q 145 638 148 624 q 148 620 149 617 l 251 153 l 349 571 q 337 634 319 656 q 301 679 264 679 l 262 679 l 262 701 l 481 701 l 481 679 q 445 679 434 671 q 423 664 423 643 q 423 634 423 629 q 424 624 425 620 l 533 147 l 631 567 q 635 585 638 602 q 640 618 640 629 q 640 654 625 667 q 609 679 578 679 l 574 679 l 574 701 l 756 701 l 756 679 l 754 679 q 720 679 698 654 q 676 629 663 575 l 525 -9 l 485 -9 l 363 511 l 240 -9 z"},"A":{"x_min":0,"x_max":566,"ha":566,"o":"m 160 250 l 351 250 l 257 598 z m -10 0 l -10 23 l -8 23 q 31 23 58 52 q 84 82 102 145 l 256 701 l 318 701 l 481 121 q 497 62 516 44 q 535 26 573 23 l 573 0 l 331 0 l 331 23 q 365 24 381 34 q 397 44 397 65 q 397 74 395 84 q 394 95 389 111 l 361 215 l 150 215 l 123 116 q 120 104 119 94 q 117 83 117 74 q 117 48 134 36 q 150 24 188 23 l 188 0 z"},"f":{"x_min":0,"x_max":272,"ha":272,"o":"m 171 79 q 171 42 180 32 q 189 23 219 23 l 255 23 l 255 0 l 21 0 l 21 23 l 35 23 q 65 23 74 32 q 83 42 83 79 l 83 458 l 21 458 l 21 493 l 83 493 l 83 541 q 83 629 112 673 q 140 717 197 717 q 230 717 256 692 q 282 667 282 634 q 282 609 268 593 q 253 577 232 577 q 214 577 202 589 q 190 602 190 620 q 190 639 207 653 q 224 667 224 675 q 224 685 216 690 q 208 696 194 696 q 171 696 157 677 q 142 657 142 626 q 142 605 155 561 q 167 517 171 493 l 267 493 l 267 458 l 171 458 z"},"Q":{"x_min":0,"x_max":569,"ha":569,"o":"m 177 80 q 188 117 211 136 q 233 155 266 155 q 304 155 330 130 q 356 104 375 50 q 402 83 417 161 q 431 239 431 351 q 431 528 396 612 q 360 695 285 695 q 210 695 175 612 q 139 528 139 351 q 139 262 148 195 q 158 128 177 80 z m 193 53 q 208 30 230 19 q 253 7 282 7 q 289 7 298 8 q 308 9 322 12 q 313 63 295 87 q 277 112 248 112 q 227 112 212 97 q 198 82 193 53 z m 326 -10 q 313 -13 304 -14 q 294 -15 285 -15 q 174 -15 103 86 q 32 188 32 351 q 32 514 104 616 q 175 718 284 718 q 394 718 465 615 q 537 513 537 351 q 537 232 498 145 q 459 57 389 15 q 401 -16 418 -31 q 435 -45 458 -45 q 481 -45 494 -27 q 508 -9 508 21 l 508 27 l 533 27 q 533 -41 504 -82 q 475 -123 427 -123 q 390 -123 365 -95 q 340 -67 326 -10 z"},"w":{"x_min":0,"x_max":664,"ha":664,"o":"m 208 -12 l 63 404 q 49 444 33 457 q 17 469 -13 471 l -13 493 l 198 493 l 198 471 l 194 471 q 169 471 156 463 q 142 456 142 442 q 142 427 148 408 q 149 406 149 406 l 250 117 l 317 370 l 301 421 q 292 450 277 460 q 262 471 231 471 l 231 493 l 451 493 l 451 471 l 431 471 q 405 471 395 465 q 385 458 385 442 q 385 437 387 427 q 389 418 392 408 l 492 117 l 563 384 q 567 398 569 412 q 571 425 571 433 q 571 452 558 461 q 546 471 522 471 l 518 471 l 518 493 l 672 493 l 672 471 q 641 471 622 451 q 604 432 591 384 l 484 -12 l 451 -12 l 332 327 l 242 -12 z"},"-":{"x_min":0,"x_max":255,"ha":255,"o":"m 20 220 l 20 294 l 234 294 l 234 220 z"},"E":{"x_min":0,"x_max":561,"ha":561,"o":"m 18 0 l 18 24 l 48 24 q 83 24 95 35 q 106 47 106 81 l 106 621 q 106 655 95 667 q 84 678 53 678 l 48 678 l 18 678 l 18 701 l 512 701 l 513 478 l 491 478 q 476 589 430 634 q 385 678 286 678 q 229 678 214 668 q 199 659 199 617 l 199 380 l 217 380 q 292 380 325 408 q 357 437 363 508 l 386 508 l 386 219 l 363 219 q 361 290 328 324 q 294 359 229 359 q 221 359 202 357 q 200 357 199 357 l 199 103 q 199 48 211 36 q 222 24 275 24 q 380 24 431 72 q 481 121 499 240 l 522 240 l 510 0 z"},"s":{"x_min":0,"x_max":403,"ha":403,"o":"m 51 0 l 53 204 l 77 204 q 83 120 126 66 q 168 12 224 12 q 259 12 283 36 q 307 59 307 94 q 307 126 287 150 q 267 173 207 206 q 198 211 180 221 q 51 291 51 367 q 51 421 90 463 q 129 504 182 504 q 218 504 257 480 q 296 456 304 456 q 314 456 318 464 q 322 471 323 493 l 347 493 l 345 312 l 321 312 q 308 388 271 433 q 234 478 188 478 q 155 478 131 455 q 108 432 108 401 q 108 357 205 307 l 205 307 q 310 252 340 217 q 369 182 369 134 q 369 75 327 31 q 284 -12 227 -12 q 185 -12 144 12 q 102 37 95 37 q 84 37 79 28 q 74 20 74 0 z"},">":{"x_min":0,"x_max":833,"ha":833,"o":"m 129 559 l 704 323 l 704 273 l 129 37 l 129 100 l 617 298 l 129 497 z"},"l":{"x_min":0,"x_max":255,"ha":255,"o":"m 20 0 l 20 23 l 36 23 q 66 23 75 32 q 84 42 84 79 l 84 621 q 84 658 75 667 q 66 677 36 677 l 20 677 l 20 698 l 38 698 q 68 698 102 700 q 135 702 172 706 l 172 79 q 172 42 181 32 q 190 23 220 23 l 235 23 l 235 0 z"},"8":{"x_min":0,"x_max":435,"ha":435,"o":"m 266 406 q 300 423 320 461 q 340 498 340 545 q 340 607 307 643 q 275 679 219 679 q 164 679 130 648 q 96 617 96 568 q 96 502 240 420 q 257 411 266 406 z m 168 336 q 125 305 106 267 q 87 229 87 174 q 87 101 122 59 q 158 17 219 17 q 274 17 313 54 q 352 90 352 142 q 352 193 320 231 q 287 269 168 336 z m 146 351 q 97 383 72 427 q 48 471 48 528 q 48 605 97 655 q 147 705 224 705 q 296 705 342 660 q 387 615 387 544 q 387 496 363 458 q 338 420 288 391 q 346 351 377 300 q 407 249 407 190 q 407 105 351 48 q 294 -9 211 -9 q 135 -9 82 45 q 29 99 29 177 q 29 229 58 272 q 86 315 146 351 z"},"\\":{"x_min":0,"x_max":361,"ha":361,"o":"m 336 -93 l 12 701 l 61 701 l 385 -93 z"},"e":{"x_min":0,"x_max":390,"ha":390,"o":"m 124 275 l 269 275 q 269 282 270 295 q 270 308 270 314 q 270 407 252 445 q 235 484 194 484 q 156 484 140 446 q 124 407 124 305 z m 366 145 q 354 69 312 29 q 271 -12 206 -12 q 127 -12 76 58 q 25 129 25 242 q 25 357 74 431 q 123 505 195 505 q 271 505 317 438 q 364 370 364 257 l 364 251 l 124 251 q 124 245 124 231 q 123 218 123 210 q 123 108 147 61 q 171 14 223 14 q 266 14 297 49 q 328 84 340 145 z"},"b":{"x_min":0,"x_max":442,"ha":442,"o":"m 243 469 q 200 469 177 406 q 155 343 155 222 q 155 115 175 65 q 194 16 237 16 q 279 16 297 65 q 314 115 314 248 q 314 370 298 420 q 281 469 243 469 z m 69 621 q 69 658 60 667 q 51 677 21 677 l 5 677 l 5 698 l 23 698 q 53 698 87 700 q 120 702 157 706 l 157 412 q 173 455 200 478 q 228 501 262 501 q 325 501 368 430 q 410 359 410 247 q 410 135 363 64 q 315 -7 242 -7 q 188 -7 143 51 q 130 68 126 68 q 122 68 119 64 q 115 61 109 47 l 86 -5 l 69 -5 z"},"%":{"x_min":0,"x_max":682,"ha":682,"o":"m 101 538 l 101 429 q 101 339 111 310 q 121 281 147 281 q 173 281 184 312 q 194 342 194 429 l 194 538 q 194 625 184 656 q 173 687 147 687 q 121 687 111 656 q 101 626 101 538 z m 147 261 q 98 261 64 324 q 30 387 30 484 q 30 581 63 644 q 97 706 147 706 q 196 706 230 643 q 264 581 264 484 q 264 388 230 324 q 196 261 147 261 z m 487 268 l 487 159 q 487 71 497 41 q 507 11 534 11 q 560 11 570 41 q 580 71 580 159 l 580 268 q 580 356 570 386 q 560 416 534 416 q 508 416 497 385 q 487 354 487 268 z m 175 -9 l 467 706 l 505 706 l 215 -9 z m 533 -9 q 483 -9 450 53 q 416 116 416 213 q 416 311 450 373 q 483 436 533 436 q 583 436 616 373 q 650 310 650 213 q 650 117 616 54 q 582 -9 533 -9 z"},"m":{"x_min":0,"x_max":682,"ha":682,"o":"m 24 0 l 24 23 l 40 23 q 70 23 79 32 q 88 42 88 79 l 88 416 q 88 453 79 463 q 70 472 40 472 l 24 472 l 24 493 q 68 493 104 495 q 140 497 170 501 l 170 425 q 190 463 219 484 q 248 505 281 505 q 320 505 347 484 q 374 463 385 423 q 403 463 431 484 q 460 505 496 505 q 554 505 580 466 q 606 427 606 337 l 606 79 q 606 42 615 32 q 624 23 654 23 l 668 23 l 668 0 l 469 0 l 469 23 l 473 23 q 500 23 509 33 q 518 43 518 79 l 518 390 q 518 433 507 450 q 497 468 472 468 q 430 468 411 427 q 391 387 391 298 l 391 79 q 391 43 400 33 q 410 23 438 23 l 443 23 l 443 0 l 249 0 l 249 23 l 254 23 q 285 23 294 33 q 303 42 303 79 l 303 390 q 303 433 292 450 q 282 468 257 468 q 215 468 195 427 q 176 387 176 298 l 176 79 q 176 42 185 33 q 194 23 220 23 l 224 23 l 224 0 z"},"#":{"x_min":0,"x_max":769,"ha":769,"o":"m 342 424 l 293 284 l 434 284 l 484 424 z m 380 711 l 445 711 l 363 481 l 503 481 l 585 711 l 649 711 l 568 481 l 718 481 l 698 424 l 547 424 l 498 284 l 660 284 l 639 228 l 478 228 l 397 -1 l 332 -1 l 413 228 l 273 228 l 192 -1 l 128 -1 l 209 228 l 51 228 l 72 284 l 229 284 l 278 424 l 108 424 l 129 481 l 299 481 z"},",":{"x_min":0,"x_max":218,"ha":218,"o":"m 56 -144 q 91 -116 111 -86 q 132 -56 132 -36 q 132 -25 126 -19 q 121 -13 107 -10 q 76 -3 65 9 q 54 20 54 41 q 54 64 69 80 q 84 95 106 95 q 136 95 155 71 q 174 46 174 8 q 174 -32 148 -75 q 122 -119 72 -161 z"},"n":{"x_min":0,"x_max":479,"ha":479,"o":"m 24 0 l 24 23 l 40 23 q 70 23 79 32 q 88 42 88 79 l 88 416 q 88 453 79 463 q 70 473 40 474 l 24 474 l 24 493 q 68 493 104 495 q 140 497 170 501 l 170 408 q 186 453 220 479 q 253 505 294 505 q 352 505 377 466 q 403 427 403 337 l 403 79 q 403 42 412 33 q 421 23 452 23 l 466 23 l 466 0 l 259 0 l 259 23 l 267 23 q 297 23 306 32 q 315 42 315 79 l 315 390 q 315 435 304 453 q 292 472 267 472 q 227 472 201 425 q 176 377 176 298 l 176 79 q 176 42 185 32 q 194 23 224 23 l 238 23 l 238 0 z"},"h":{"x_min":0,"x_max":468,"ha":468,"o":"m 12 0 l 12 23 l 28 23 q 58 23 67 32 q 76 42 76 79 l 76 621 q 76 658 67 667 q 58 677 28 677 l 12 677 l 12 698 l 30 698 q 60 698 94 700 q 127 702 164 706 l 164 419 q 180 459 212 482 q 244 505 282 505 q 340 505 366 466 q 392 427 392 337 l 392 79 q 392 42 401 32 q 410 23 440 23 l 454 23 l 454 0 l 248 0 l 248 23 l 256 23 q 286 23 295 32 q 304 42 304 79 l 304 390 q 304 434 292 453 q 281 472 255 472 q 214 472 189 425 q 164 377 164 298 l 164 79 q 164 42 173 32 q 182 23 212 23 l 227 23 l 227 0 z"},"z":{"x_min":0,"x_max":392,"ha":392,"o":"m 16 0 l 16 20 l 271 471 q 266 471 256 472 q 247 472 242 472 q 155 472 112 441 q 69 411 57 340 l 37 340 l 43 493 l 367 493 l 367 473 l 111 23 l 168 23 q 252 23 292 62 q 332 101 347 198 l 366 198 l 360 0 z"},"B":{"x_min":0,"x_max":567,"ha":567,"o":"m 199 379 q 206 378 214 378 q 221 378 236 378 q 333 378 371 412 q 408 446 408 534 q 408 616 380 647 q 351 678 273 678 q 224 678 211 668 q 199 657 199 622 z m 199 356 l 199 97 q 199 47 210 34 q 222 22 258 22 q 347 22 383 60 q 419 98 419 190 q 419 281 378 319 q 337 357 236 357 q 221 357 213 357 q 206 356 199 356 z m 18 0 l 18 22 l 48 22 q 83 22 94 34 q 106 46 106 81 l 106 621 q 106 655 95 667 q 84 678 53 678 l 48 678 l 18 678 l 18 701 l 297 701 q 402 701 457 660 q 512 619 512 540 q 512 478 464 430 q 416 383 338 371 q 427 353 476 304 q 525 256 525 187 q 525 141 501 100 q 477 59 435 33 q 406 16 365 8 q 325 0 258 0 z"},"K":{"x_min":0,"x_max":604,"ha":604,"o":"m 199 333 l 411 601 q 420 612 425 624 q 430 635 430 645 q 430 662 418 670 q 406 679 383 679 l 366 679 l 366 701 l 581 701 l 581 679 q 543 679 515 663 q 486 646 449 600 l 327 448 l 530 64 q 542 40 557 31 q 572 23 601 23 l 614 23 l 614 0 l 356 0 l 356 23 l 384 23 q 409 23 419 28 q 429 34 429 47 q 429 53 427 60 q 424 68 419 78 l 267 375 l 199 290 l 199 81 q 199 46 210 34 q 221 23 256 23 l 287 23 l 287 0 l 18 0 l 18 23 l 48 23 q 83 23 94 35 q 106 46 106 81 l 106 621 q 106 656 94 667 q 83 679 48 679 l 18 679 l 18 701 l 287 701 l 287 679 l 256 679 q 221 679 210 668 q 199 656 199 621 z"},"R":{"x_min":0,"x_max":587,"ha":587,"o":"m 199 381 l 256 381 q 339 381 374 418 q 409 455 409 540 q 409 614 375 647 q 340 680 261 680 q 220 680 210 671 q 199 662 199 625 z m 199 81 q 199 46 210 34 q 221 23 256 23 l 287 23 l 287 0 l 18 0 l 18 23 l 48 23 q 83 23 94 35 q 106 46 106 81 l 106 621 q 106 656 94 667 q 83 679 48 680 l 18 680 l 18 701 l 280 701 q 348 701 385 693 q 423 684 451 664 q 481 642 498 609 q 515 577 515 540 q 515 475 468 428 q 421 382 339 367 q 404 342 434 294 q 464 247 469 158 q 469 154 470 145 q 476 44 511 44 q 529 44 539 62 q 549 80 549 114 l 549 158 l 574 158 l 574 112 q 574 54 549 23 q 524 -8 478 -8 q 449 -8 425 8 q 402 23 387 53 q 366 95 363 206 q 362 237 361 253 q 358 314 334 335 q 311 357 244 357 l 199 357 z"},"T":{"x_min":0,"x_max":516,"ha":516,"o":"m 211 613 q 211 654 204 665 q 198 677 180 677 q 134 677 98 615 q 63 553 47 443 l 25 443 l 36 701 l 479 701 l 490 443 l 468 443 q 452 553 417 615 q 381 677 335 677 q 317 677 311 665 q 304 654 304 613 l 304 81 q 304 46 316 35 q 327 23 362 23 l 399 23 l 399 0 l 116 0 l 116 23 l 153 23 q 188 23 199 35 q 211 46 211 81 z"},"P":{"x_min":0,"x_max":532,"ha":532,"o":"m 199 354 l 254 354 q 336 354 374 392 q 411 430 411 512 q 411 600 375 640 q 338 680 257 680 q 222 680 210 669 q 199 658 199 612 z m 199 81 q 199 46 210 34 q 221 23 256 23 l 291 23 l 291 0 l 18 0 l 18 23 l 48 23 q 83 23 94 35 q 106 46 106 81 l 106 621 q 106 656 94 667 q 83 679 48 680 l 18 680 l 18 701 l 272 701 q 395 701 455 655 q 516 609 516 516 q 516 429 453 380 q 391 331 277 331 l 199 331 z"},"|":{"x_min":0,"x_max":500,"ha":500,"o":"m 219 764 l 281 764 l 281 -236 l 219 -236 z"},"t":{"x_min":0,"x_max":299,"ha":299,"o":"m 82 456 l 20 456 l 20 493 q 76 500 106 546 q 136 593 144 684 l 170 684 l 170 493 l 262 493 l 262 456 l 170 456 l 170 114 q 170 71 178 53 q 186 35 204 35 q 225 35 234 58 q 243 80 243 132 l 243 141 l 268 141 l 268 120 q 268 56 243 22 q 219 -12 172 -12 q 124 -12 103 24 q 82 60 82 154 z"},"M":{"x_min":0,"x_max":682,"ha":682,"o":"m 19 0 l 19 23 l 27 23 q 71 23 88 50 q 106 77 106 149 l 106 627 q 106 659 97 669 q 87 679 54 679 l 19 679 l 19 701 l 216 701 l 339 189 l 460 701 l 660 701 l 660 679 l 634 679 q 599 679 588 667 q 576 656 576 621 l 576 81 q 576 46 588 35 q 599 23 634 23 l 660 23 l 660 0 l 401 0 l 401 23 l 429 23 q 464 23 475 35 q 487 46 487 81 l 487 675 l 324 0 l 301 0 l 136 671 l 136 145 q 136 70 152 47 q 168 23 210 23 l 223 23 l 223 0 z"},"g":{"x_min":0,"x_max":442,"ha":442,"o":"m 210 165 q 244 165 259 196 q 273 228 273 305 q 273 416 259 449 q 245 482 210 482 q 175 482 161 450 q 147 418 147 323 q 147 229 161 197 q 175 165 210 165 z m 170 -22 q 126 -34 104 -56 q 81 -79 81 -109 q 81 -150 120 -173 q 159 -196 230 -196 q 305 -196 350 -171 q 394 -146 394 -104 q 394 -59 361 -41 q 327 -23 198 -23 q 193 -23 183 -22 q 174 -22 170 -22 z m 118 173 q 83 203 66 240 q 49 277 49 327 q 49 403 95 453 q 142 503 211 503 q 238 503 262 494 q 286 486 307 468 q 321 510 345 532 q 369 555 400 555 q 429 555 448 537 q 467 520 467 493 q 467 471 452 456 q 438 440 417 440 q 401 440 389 450 q 377 459 373 475 q 372 480 371 490 q 370 508 360 508 q 353 508 343 492 q 333 477 326 453 q 349 426 360 396 q 371 367 371 331 q 371 250 324 197 q 278 144 209 144 q 191 144 174 148 q 156 152 138 161 q 121 151 112 139 q 104 128 104 113 q 104 84 130 72 q 157 60 231 59 l 252 59 q 306 59 335 53 q 365 46 390 32 q 417 15 433 -12 q 448 -39 448 -71 q 448 -137 389 -178 q 331 -220 237 -220 q 142 -220 84 -189 q 26 -158 26 -109 q 26 -79 52 -56 q 78 -33 129 -18 q 91 -9 67 18 q 44 44 44 77 q 44 105 61 127 q 78 149 118 173 z"},"j":{"x_min":0,"x_max":260,"ha":260,"o":"m 76 656 q 76 679 92 695 q 107 711 130 711 q 152 711 168 695 q 184 679 184 656 q 184 634 168 618 q 152 602 130 602 q 108 602 92 618 q 76 634 76 656 z m 90 79 l 90 416 q 90 453 81 463 q 72 472 42 472 l 26 472 l 26 493 l 44 493 q 74 493 108 495 q 141 497 178 501 l 178 16 q 178 -106 149 -164 q 120 -221 58 -221 q 20 -221 -9 -195 q -37 -168 -37 -132 q -37 -104 -21 -85 q -5 -67 19 -67 q 39 -67 52 -81 q 66 -95 66 -115 q 66 -133 46 -149 q 27 -164 27 -175 q 27 -185 35 -192 q 42 -198 55 -198 q 77 -198 91 -179 q 105 -160 105 -128 q 105 -123 102 -101 q 90 -11 90 79 z"},"i":{"x_min":0,"x_max":260,"ha":260,"o":"m 26 0 l 26 23 l 42 23 q 72 23 81 32 q 90 42 90 79 l 90 416 q 90 453 81 463 q 72 472 42 472 l 26 472 l 26 493 l 44 493 q 74 493 108 495 q 141 497 178 501 l 178 79 q 178 42 187 32 q 196 23 226 23 l 241 23 l 241 0 z m 76 656 q 76 679 92 695 q 107 711 130 711 q 152 711 168 695 q 184 679 184 656 q 184 634 168 618 q 152 602 130 602 q 108 602 92 618 q 76 634 76 656 z"},"y":{"x_min":0,"x_max":400,"ha":400,"o":"m 211 -12 l 51 409 q 36 449 23 459 q 11 470 -13 471 l -13 493 l 182 493 l 182 471 l 176 471 q 152 471 141 465 q 131 459 131 445 q 131 438 132 430 q 134 422 136 417 l 247 118 l 322 395 q 325 407 327 419 q 329 431 329 440 q 329 457 317 464 q 306 471 276 471 l 276 493 l 425 493 l 425 471 l 417 471 q 393 471 377 454 q 361 438 350 399 l 237 -8 q 208 -114 168 -167 q 128 -220 78 -220 q 37 -220 10 -194 q -16 -168 -16 -128 q -16 -99 2 -78 q 20 -58 46 -58 q 69 -58 86 -75 q 102 -92 102 -115 q 102 -129 93 -142 q 83 -154 68 -160 q 65 -161 58 -163 q 41 -167 41 -177 q 41 -186 52 -191 q 62 -197 79 -197 q 120 -197 152 -152 q 184 -107 211 -12 z"},"@":{"x_min":0,"x_max":986,"ha":986,"o":"m 581 164 q 551 112 513 87 q 476 61 430 61 q 369 61 332 106 q 295 151 295 225 q 295 278 319 331 q 343 383 386 425 q 418 456 457 474 q 495 491 532 491 q 575 491 602 467 q 629 443 640 396 l 666 484 l 736 484 l 653 186 q 653 185 652 184 q 644 155 644 133 q 644 110 656 96 q 669 83 690 83 q 707 83 729 92 q 750 100 770 115 q 830 159 861 228 q 893 297 893 382 q 893 450 869 505 q 844 560 794 604 q 750 643 688 664 q 627 685 558 685 q 467 685 391 656 q 316 628 257 571 q 193 509 161 427 q 128 346 128 247 q 128 162 156 98 q 184 35 244 -16 q 300 -63 372 -88 q 443 -112 528 -112 q 607 -112 683 -86 q 758 -61 827 -11 l 842 -29 q 770 -83 689 -110 q 608 -137 522 -137 q 431 -137 355 -115 q 279 -92 221 -47 q 147 8 109 87 q 71 166 71 262 q 71 362 113 448 q 155 535 235 601 q 299 655 377 682 q 455 709 545 709 q 714 709 815 618 q 916 526 916 374 q 916 297 888 229 q 859 161 808 114 q 780 88 748 75 q 715 61 682 61 q 635 61 609 87 q 584 112 581 164 z m 536 471 q 510 471 488 456 q 466 441 443 407 q 408 354 387 293 q 366 231 366 183 q 366 138 386 111 q 406 85 439 85 q 471 85 500 107 q 530 128 557 172 q 585 218 602 271 q 618 324 618 367 q 618 413 595 442 q 572 471 536 471 z"},".":{"x_min":0,"x_max":218,"ha":218,"o":"m 55 42 q 55 64 71 80 q 86 95 109 95 q 130 95 146 80 q 162 64 162 42 q 162 20 146 4 q 131 -11 109 -11 q 87 -11 71 5 q 55 21 55 42 z"},"p":{"x_min":0,"x_max":450,"ha":450,"o":"m 164 -130 q 164 -167 173 -176 q 182 -185 212 -185 l 227 -185 l 227 -208 l 12 -208 l 12 -185 l 28 -185 q 59 -185 67 -176 q 76 -167 76 -130 l 76 416 q 76 453 67 463 q 58 472 28 472 l 12 472 l 12 493 q 56 493 92 495 q 128 497 159 501 l 159 408 q 175 452 206 478 q 236 503 273 503 q 333 503 375 429 q 417 356 417 246 q 417 130 373 59 q 329 -12 259 -12 q 229 -12 206 3 q 183 18 164 51 z m 164 298 l 164 178 q 164 102 185 59 q 207 16 243 16 q 285 16 303 72 q 321 127 321 259 q 321 365 303 417 q 285 470 249 470 q 212 470 188 423 q 164 375 164 298 z"},"X":{"x_min":0,"x_max":565,"ha":565,"o":"m -26 0 l -26 23 l -3 23 q 41 23 73 49 q 104 74 134 133 l 248 358 l 134 601 q 109 654 89 667 q 69 679 30 679 l 8 679 l 8 701 l 286 701 l 286 679 l 262 679 q 238 679 228 672 q 217 666 217 650 q 217 644 219 636 q 221 628 228 612 l 300 451 l 378 599 q 387 615 390 626 q 394 637 394 646 q 394 664 382 671 q 370 679 341 679 l 323 679 l 323 701 l 543 701 l 543 679 l 518 679 q 482 679 459 662 q 436 646 412 602 l 315 421 l 466 102 q 491 48 509 36 q 526 23 558 23 l 575 23 l 575 0 l 299 0 l 299 23 l 332 23 q 360 23 372 30 q 384 37 384 52 q 384 59 382 66 q 379 74 375 84 l 264 328 l 155 111 q 148 97 144 83 q 140 70 140 61 q 140 43 154 33 q 168 23 194 23 l 219 23 l 219 0 z"},"*":{"x_min":0,"x_max":370,"ha":370,"o":"m 205 569 q 220 581 243 602 q 280 636 299 636 q 316 636 327 624 q 338 612 338 594 q 338 577 324 566 q 310 556 286 556 q 281 556 261 558 q 241 559 226 559 l 209 559 z m 180 583 q 174 601 159 634 q 145 666 145 679 q 145 697 156 708 q 167 719 185 719 q 203 719 213 708 q 224 697 224 679 q 224 666 210 635 q 197 603 191 583 z m 164 569 l 161 559 l 144 559 q 129 559 109 558 q 89 556 84 556 q 60 556 45 566 q 31 577 31 594 q 31 612 42 624 q 53 636 70 636 q 89 636 126 602 q 149 581 164 569 z m 176 537 q 172 522 167 496 q 151 420 118 420 q 102 420 90 431 q 78 442 78 458 q 78 483 125 514 q 152 531 167 543 z m 194 537 l 203 543 q 218 531 244 514 q 292 483 292 458 q 292 443 280 432 q 267 420 251 420 q 218 420 204 493 q 198 521 194 537 z"},"Y":{"x_min":0,"x_max":514,"ha":514,"o":"m 315 81 q 315 46 326 35 q 338 23 373 23 l 403 23 l 403 0 l 134 0 l 134 23 l 165 23 q 200 23 211 34 q 222 46 222 81 l 222 290 l 78 618 q 61 655 45 667 q 30 679 2 679 l -5 679 l -5 701 l 209 701 l 209 679 q 183 679 172 673 q 162 667 162 652 q 162 643 169 627 q 169 626 170 625 l 300 324 l 396 581 q 402 596 405 611 q 408 626 408 638 q 408 659 395 669 q 381 679 354 679 l 350 679 l 350 701 l 539 701 l 539 679 q 497 677 470 652 q 444 626 419 560 l 315 284 z"},"c":{"x_min":0,"x_max":391,"ha":391,"o":"m 372 152 q 356 78 312 33 q 268 -11 210 -11 q 130 -11 79 60 q 28 130 28 243 q 28 359 83 432 q 138 504 224 504 q 277 504 318 463 q 359 422 359 369 q 359 338 342 318 q 324 298 298 298 q 273 298 258 313 q 242 328 242 351 q 242 369 262 397 q 282 424 282 438 q 282 457 265 470 q 248 483 223 483 q 170 483 148 432 q 126 380 126 248 q 126 122 148 71 q 171 19 224 19 q 265 19 297 54 q 329 89 346 152 z"},"!":{"x_min":0,"x_max":275,"ha":275,"o":"m 85 42 q 85 64 100 80 q 115 95 138 95 q 160 95 175 80 q 191 64 191 42 q 191 20 175 4 q 160 -11 138 -11 q 116 -11 101 5 q 85 21 85 42 z m 128 206 l 85 620 q 85 623 84 628 q 83 647 83 654 q 83 684 97 701 q 112 718 137 718 q 163 718 177 701 q 191 684 191 654 q 191 643 190 635 q 190 627 189 620 l 146 206 z"},"/":{"x_min":0,"x_max":361,"ha":361,"o":"m 25 -93 l -24 -93 l 300 701 l 349 701 z"},"[":{"x_min":0,"x_max":333,"ha":333,"o":"m 244 679 q 209 679 201 670 q 193 661 193 627 l 193 -137 q 193 -171 202 -181 q 210 -190 244 -190 l 321 -190 l 321 -213 l 106 -213 l 106 701 l 321 701 l 321 679 z"},"6":{"x_min":0,"x_max":435,"ha":435,"o":"m 308 198 q 308 310 292 355 q 275 401 237 401 q 197 401 176 354 q 155 306 155 215 q 155 108 175 60 q 194 11 237 11 q 276 11 292 50 q 308 88 308 198 z m 153 354 q 168 391 195 411 q 221 430 256 430 q 324 430 369 371 q 414 312 414 220 q 414 125 361 58 q 308 -9 234 -9 q 149 -9 95 82 q 42 172 42 321 q 42 493 104 599 q 166 705 262 705 q 323 705 362 673 q 400 640 400 589 q 400 562 381 542 q 363 523 337 523 q 311 523 295 538 q 280 552 280 576 q 280 598 302 619 q 323 641 323 650 q 323 663 306 674 q 290 685 266 685 q 202 685 177 632 q 152 580 152 427 q 152 416 152 392 q 153 367 153 354 z"},"r":{"x_min":0,"x_max":360,"ha":360,"o":"m 24 0 l 24 23 l 40 23 q 70 23 79 32 q 88 42 88 79 l 88 416 q 88 453 79 463 q 70 472 40 472 l 24 472 l 24 493 q 68 493 104 495 q 140 497 170 501 l 170 408 q 188 452 218 478 q 248 503 282 503 q 316 503 339 481 q 363 459 363 427 q 363 399 344 379 q 325 360 298 360 q 275 360 260 374 q 244 388 244 409 q 244 426 260 442 q 277 457 277 463 q 277 468 273 471 q 269 474 262 474 q 228 474 202 425 q 176 375 176 298 l 176 79 q 176 42 185 32 q 194 23 224 23 l 248 23 l 248 0 z"},"2":{"x_min":0,"x_max":435,"ha":435,"o":"m 28 0 q 38 53 68 114 q 99 175 145 231 q 153 241 170 260 q 219 317 238 353 q 253 382 261 423 q 268 464 268 519 q 268 600 243 640 q 218 679 167 679 q 120 679 86 641 q 52 604 52 550 q 52 527 59 513 q 66 499 76 499 q 81 499 100 516 q 118 533 138 533 q 164 533 180 517 q 196 500 196 474 q 196 445 175 426 q 154 406 124 406 q 78 406 50 441 q 22 477 22 535 q 22 610 71 658 q 121 705 200 705 q 276 705 328 649 q 380 594 380 511 q 380 395 221 255 q 210 246 205 241 q 153 195 123 156 q 93 118 85 86 l 269 86 q 319 86 338 104 q 356 121 359 170 l 361 206 l 386 206 l 375 0 z"},"{":{"x_min":0,"x_max":500,"ha":500,"o":"m 413 740 l 413 715 q 344 714 318 688 q 293 662 293 586 l 293 516 q 293 406 263 365 q 233 325 153 310 q 233 295 263 255 q 293 214 293 104 l 293 34 q 293 -42 318 -68 q 343 -93 413 -94 l 413 -119 l 408 -119 q 302 -119 263 -83 q 223 -47 223 50 l 223 154 q 223 231 194 260 q 166 290 86 296 l 86 325 q 167 333 195 361 q 223 390 223 467 l 223 571 q 223 668 263 704 q 302 740 408 740 z"},"9":{"x_min":0,"x_max":435,"ha":435,"o":"m 140 497 q 140 384 156 339 q 172 295 210 295 q 251 295 272 343 q 292 391 292 490 q 292 588 272 636 q 251 684 210 684 q 171 684 156 646 q 140 608 140 497 z m 294 341 q 278 304 252 285 q 227 266 191 266 q 123 266 78 325 q 34 384 34 475 q 34 570 87 638 q 141 705 214 705 q 299 705 352 614 q 405 523 405 374 q 405 203 344 97 q 282 -9 186 -9 q 125 -9 86 23 q 47 55 47 102 q 47 132 65 152 q 83 172 110 172 q 135 172 151 157 q 167 143 167 119 q 167 97 146 75 q 124 54 124 45 q 124 32 141 21 q 158 10 181 10 q 245 10 269 63 q 294 117 294 277 z"}," ":{"x_min":0,"x_max":218,"ha":218,"o":""},"I":{"x_min":0,"x_max":314,"ha":314,"o":"m 203 81 q 203 46 215 35 q 226 23 261 23 l 291 23 l 291 0 l 22 0 l 22 23 l 53 23 q 87 23 99 34 q 110 46 110 81 l 110 621 q 110 656 99 668 q 87 679 53 679 l 22 679 l 22 701 l 291 701 l 291 679 l 261 679 q 226 679 215 667 q 203 656 203 621 z"},"H":{"x_min":0,"x_max":616,"ha":616,"o":"m 199 81 q 199 46 210 34 q 221 23 256 23 l 287 23 l 287 0 l 18 0 l 18 23 l 48 23 q 83 23 94 35 q 106 46 106 81 l 106 621 q 106 656 94 667 q 83 679 48 679 l 18 679 l 18 701 l 287 701 l 287 679 l 256 679 q 221 679 210 668 q 199 656 199 621 l 199 418 l 417 418 l 417 621 q 417 656 406 667 q 394 679 359 679 l 329 679 l 329 701 l 598 701 l 598 679 l 568 679 q 533 679 521 667 q 510 656 510 621 l 510 81 q 510 46 521 35 q 533 23 568 23 l 598 23 l 598 0 l 329 0 l 329 23 l 359 23 q 394 23 406 35 q 417 46 417 81 l 417 379 l 199 379 z"},"4":{"x_min":0,"x_max":435,"ha":435,"o":"m 230 244 l 230 581 l 72 244 z m 321 83 q 321 44 333 33 q 344 23 380 23 l 408 23 l 408 0 l 144 0 l 144 23 l 171 23 q 207 23 218 34 q 230 44 230 83 l 230 186 l 33 186 l 33 219 l 257 697 l 321 697 l 321 244 l 408 244 l 408 186 l 321 186 z"},"~":{"x_min":0,"x_max":833,"ha":833,"o":"m 747 370 l 747 306 q 698 271 651 253 q 604 236 558 236 q 537 236 514 240 q 491 245 465 253 q 450 258 422 268 q 324 303 275 303 q 234 303 190 285 q 146 267 87 225 l 87 290 q 138 326 186 343 q 233 361 276 361 q 303 361 333 355 q 362 349 418 329 q 424 327 435 323 q 515 294 559 294 q 601 294 645 312 q 689 330 747 370 z"},"D":{"x_min":0,"x_max":569,"ha":569,"o":"m 199 94 q 199 49 210 36 q 221 23 257 23 q 355 23 396 97 q 436 171 436 362 q 436 534 393 606 q 351 678 250 678 q 221 678 210 666 q 199 654 199 620 z m 234 701 q 292 701 331 694 q 370 687 395 672 q 461 633 502 548 q 543 463 543 361 q 543 258 509 177 q 475 96 412 49 q 377 23 338 11 q 298 0 236 0 l 18 0 l 18 23 l 55 23 q 84 23 95 35 q 106 47 106 81 l 106 621 q 106 654 96 666 q 85 678 59 678 l 55 678 l 18 678 l 18 701 z"},"^":{"x_min":0,"x_max":1000,"ha":1000,"o":"m 456 714 l 543 714 l 797 438 l 752 438 l 499 651 l 245 438 l 201 438 z"},"0":{"x_min":0,"x_max":435,"ha":435,"o":"m 140 439 l 140 258 q 140 112 157 62 q 174 12 218 12 q 261 12 278 62 q 295 111 295 258 l 295 439 q 295 586 278 636 q 261 685 218 685 q 174 685 157 635 q 140 585 140 439 z m 218 -9 q 139 -9 85 91 q 31 191 31 348 q 31 505 85 605 q 139 706 218 706 q 296 706 350 605 q 404 503 404 348 q 404 193 350 92 q 296 -9 218 -9 z"},"F":{"x_min":0,"x_max":528,"ha":528,"o":"m 199 384 l 203 384 q 278 384 310 417 q 342 450 344 526 l 367 526 l 367 213 l 344 213 q 342 288 311 324 q 280 361 218 361 q 210 361 207 361 q 203 360 199 360 l 199 81 q 199 46 210 34 q 221 23 256 23 l 291 23 l 291 0 l 18 0 l 18 23 l 48 23 q 83 23 94 35 q 106 46 106 81 l 106 621 q 106 655 95 667 q 84 678 53 678 l 48 678 l 18 678 l 18 701 l 501 701 l 505 478 l 482 478 q 469 583 422 630 q 374 678 283 678 q 229 678 214 668 q 199 658 199 617 z"},"`":{"x_min":0,"x_max":500,"ha":500,"o":"m 150 673 q 138 684 132 692 q 127 700 127 707 q 127 719 135 726 q 143 733 155 733 q 167 733 176 728 q 185 723 196 708 l 313 559 l 283 559 z"},"k":{"x_min":0,"x_max":463,"ha":463,"o":"m 164 269 l 281 411 q 292 423 296 431 q 300 439 300 447 q 300 459 289 465 q 278 470 252 471 l 252 493 l 434 493 l 434 471 q 367 471 316 412 l 313 408 l 260 345 l 381 98 q 404 52 421 37 q 438 23 464 23 l 474 23 l 474 0 l 253 0 l 253 23 l 259 23 q 282 23 292 29 q 302 35 302 49 q 302 56 299 64 q 297 73 290 88 l 203 280 l 164 231 l 164 79 q 164 42 173 32 q 182 23 212 23 l 222 23 l 222 0 l 12 0 l 12 23 l 28 23 q 58 23 67 32 q 76 42 76 79 l 76 621 q 76 658 67 667 q 58 677 28 677 l 12 677 l 12 698 l 30 698 q 60 698 94 700 q 127 702 164 706 z"},"u":{"x_min":0,"x_max":472,"ha":472,"o":"m 162 113 q 162 68 173 50 q 185 31 210 31 q 254 31 277 76 q 301 121 301 205 l 301 416 q 301 453 292 463 q 283 472 253 472 l 237 472 l 237 493 l 255 493 q 285 493 319 495 q 352 497 389 501 l 389 77 q 389 40 398 31 q 407 21 437 21 l 453 21 l 453 0 l 306 0 l 306 87 q 288 40 256 14 q 224 -12 183 -12 q 124 -12 99 26 q 73 64 73 156 l 73 416 q 73 453 64 463 q 55 472 25 472 l 9 472 l 9 493 l 28 493 q 59 493 93 495 q 126 497 162 501 z"},"]":{"x_min":0,"x_max":333,"ha":333,"o":"m 90 679 l 13 679 l 13 701 l 228 701 l 228 -213 l 13 -213 l 13 -190 l 90 -190 q 124 -190 132 -180 q 141 -171 141 -137 l 141 627 q 141 660 133 670 q 124 679 90 679 z"},"U":{"x_min":0,"x_max":593,"ha":593,"o":"m 497 207 q 497 86 453 35 q 408 -16 307 -16 q 241 -16 196 6 q 150 28 123 73 q 108 98 102 130 q 96 163 96 233 l 96 621 q 96 656 85 667 q 73 679 38 679 l 8 679 l 8 701 l 276 701 l 276 679 l 246 679 q 211 679 199 667 q 188 656 188 621 l 188 187 q 188 93 219 53 q 250 14 323 14 q 401 14 434 56 q 467 97 467 209 l 467 559 q 467 630 449 653 q 431 676 381 679 l 381 701 l 583 701 l 583 679 q 532 675 514 652 q 497 630 497 558 z"},"o":{"x_min":0,"x_max":417,"ha":417,"o":"m 208 483 q 162 483 143 432 q 124 380 124 247 q 124 113 143 62 q 162 10 208 10 q 254 10 274 62 q 293 114 293 247 q 293 379 274 431 q 254 483 208 483 z m 208 504 q 282 504 336 429 q 390 354 390 247 q 390 139 336 64 q 282 -11 208 -11 q 134 -11 80 64 q 26 139 26 247 q 26 354 80 429 q 134 504 208 504 z"},"N":{"x_min":0,"x_max":595,"ha":595,"o":"m 18 0 l 18 23 q 71 24 88 47 q 106 69 106 147 l 106 617 q 106 660 95 670 q 83 679 44 679 l 20 679 l 20 701 l 192 701 l 471 189 l 471 566 q 471 632 453 654 q 435 677 384 679 l 384 701 l 591 701 l 591 679 q 540 678 521 655 q 502 632 502 568 l 502 -5 l 478 -5 l 137 616 l 137 151 q 137 72 155 48 q 173 24 224 23 l 224 0 z"},"+":{"x_min":0,"x_max":833,"ha":833,"o":"m 388 596 l 446 596 l 446 327 l 709 327 l 709 270 l 446 270 l 446 0 l 388 0 l 388 270 l 124 270 l 124 327 l 388 327 z"},"G":{"x_min":0,"x_max":562,"ha":562,"o":"m 458 4 q 452 37 444 52 q 436 68 425 68 q 415 68 394 46 q 384 36 379 31 q 355 8 327 -3 q 299 -15 267 -15 q 167 -15 99 88 q 31 191 31 348 q 31 508 99 612 q 168 716 268 716 q 315 716 357 683 q 400 650 403 650 q 409 650 416 656 q 423 663 430 675 l 448 706 l 470 706 l 478 453 l 454 453 q 427 565 378 628 q 329 691 269 691 q 201 691 170 606 q 138 522 138 340 q 138 165 171 87 q 204 9 277 9 q 333 9 362 53 q 391 97 391 183 l 391 292 q 391 327 380 338 q 368 350 333 350 l 308 350 l 308 372 l 554 372 l 554 350 l 538 350 q 503 350 491 338 q 480 327 480 292 l 480 4 z"},"q":{"x_min":0,"x_max":442,"ha":442,"o":"m 198 27 q 245 27 264 78 q 283 130 283 278 q 283 399 265 438 q 246 478 201 478 q 158 478 141 428 q 124 379 124 242 q 124 125 141 76 q 158 27 198 27 z m 369 -130 q 369 -167 378 -176 q 386 -185 417 -185 l 425 -185 l 425 -208 l 217 -208 l 217 -185 l 233 -185 q 264 -185 272 -176 q 281 -167 281 -130 l 281 66 q 263 31 237 12 q 210 -7 180 -7 q 113 -7 70 63 q 28 133 28 247 q 28 359 76 430 q 124 501 197 501 q 254 501 296 444 q 308 428 313 428 q 322 428 340 471 q 347 487 352 498 l 369 498 z"},"d":{"x_min":0,"x_max":450,"ha":450,"o":"m 200 23 q 243 23 264 80 q 286 138 286 250 q 286 363 265 419 q 245 475 202 475 q 161 475 144 429 q 127 382 127 259 q 127 128 144 75 q 160 23 200 23 z m 284 623 q 284 659 275 668 q 266 678 235 678 l 221 678 l 221 701 l 372 701 l 372 77 q 372 40 381 31 q 390 21 420 21 l 435 21 l 435 0 l 289 0 l 289 85 q 270 36 242 13 q 215 -10 175 -10 q 112 -10 72 61 q 31 132 31 247 q 31 363 75 434 q 120 505 189 505 q 219 505 241 489 q 264 473 284 437 z"},"1":{"x_min":0,"x_max":435,"ha":435,"o":"m 84 0 l 84 23 l 124 23 q 160 23 171 34 q 183 44 183 83 l 183 513 q 183 550 173 560 q 163 570 118 570 l 78 570 l 78 593 q 142 593 184 622 q 227 652 242 706 l 279 706 l 279 83 q 279 44 291 33 q 302 23 338 23 l 373 23 l 373 0 z"},"5":{"x_min":0,"x_max":435,"ha":435,"o":"m 96 389 q 122 417 152 430 q 183 444 218 444 q 297 444 351 380 q 406 316 406 224 q 406 122 347 57 q 289 -9 199 -9 q 128 -9 82 35 q 36 79 36 145 q 36 191 60 221 q 83 251 120 251 q 146 251 163 235 q 180 218 180 192 q 180 167 165 150 q 150 134 128 134 q 119 134 104 138 q 90 143 85 143 q 77 143 71 136 q 66 130 66 119 q 66 79 102 47 q 138 16 189 16 q 248 16 274 59 q 300 102 300 199 q 300 318 276 368 q 251 418 195 418 q 168 418 144 402 q 120 387 105 360 q 101 352 95 337 q 85 314 75 314 q 70 314 65 319 q 61 325 61 331 q 61 334 64 353 q 81 463 81 574 q 81 604 80 635 q 79 666 79 668 q 79 681 84 691 q 89 701 97 701 q 100 701 138 682 q 176 663 224 663 q 264 663 289 672 q 314 681 336 701 l 359 701 q 345 646 298 615 q 251 585 180 585 l 169 585 q 146 585 132 587 q 118 590 106 595 q 105 539 103 488 q 100 437 96 389 z"}}}
